<svg xmlns="http://www.w3.org/2000/svg" width="64" height="64" viewBox="0 0 16.933 16.933"><path d="m 15.207031,3.6660156 c -0.649305,0 -1.18164,0.5323178 -1.18164,1.1816406 v 3.671875 46.9609378 3.671875 c 0,0.649323 0.532335,1.18164 1.18164,1.18164 0.649305,0 1.179688,-0.532317 1.179688,-1.18164 v -2.490235 h 4.357422 v 2.490235 c 0,0.649323 0.530382,1.18164 1.179687,1.18164 0.649305,0 1.181641,-0.532317 1.181641,-1.18164 v -2.490235 h 4.355469 v 2.490235 c 0,0.649323 0.530382,1.18164 1.179687,1.18164 0.649305,0 1.181641,-0.532317 1.181641,-1.18164 v -2.490235 h 4.355468 v 2.490235 c 0,0.649323 0.532336,1.18164 1.181641,1.18164 0.649305,0 1.179687,-0.532317 1.179687,-1.18164 v -2.490235 h 4.355469 v 2.490235 c 0,0.649323 0.532333,1.18164 1.181641,1.18164 0.649304,0 1.179687,-0.532317 1.179687,-1.18164 v -2.490235 h 4.357422 v 2.490235 c 0,0.649323 0.530384,1.18164 1.179688,1.18164 0.649307,0 1.18164,-0.532317 1.18164,-1.18164 V 55.480469 8.5195312 4.8476562 c 0,-0.6493228 -0.532333,-1.1816406 -1.18164,-1.1816406 -0.649304,0 -1.179688,0.5323178 -1.179688,1.1816406 V 7.3378906 H 43.255859 V 4.8476562 c 0,-0.6493228 -0.530383,-1.1816406 -1.179687,-1.1816406 -0.649308,0 -1.181641,0.5323178 -1.181641,1.1816406 V 7.3378906 H 36.539062 V 4.8476562 c 0,-0.6493228 -0.530382,-1.1816406 -1.179687,-1.1816406 -0.649305,0 -1.181641,0.5323178 -1.181641,1.1816406 V 7.3378906 H 29.822266 V 4.8476562 c 0,-0.6493228 -0.532336,-1.1816406 -1.181641,-1.1816406 -0.649305,0 -1.179688,0.5323178 -1.179687,1.1816406 V 7.3378906 H 23.105469 V 4.8476562 c 0,-0.6493228 -0.532336,-1.1816406 -1.181641,-1.1816406 -0.649305,0 -1.179687,0.5323178 -1.179687,1.1816406 V 7.3378906 H 16.386719 V 4.8476562 c 0,-0.6493228 -0.530383,-1.1816406 -1.179688,-1.1816406 z m 1.144531,6.0332032 h 31.25 V 54.300781 h -31.25 z m 15.642579,2.3730472 c -0.401389,0 -0.779688,0.200619 -0.992188,0.542968 -0.02362,0.03402 -2.15916,3.341133 -5.748047,5.029297 -4.32083,2.042381 -6.517578,4.274281 -6.517578,10.802735 v 22.3125 c 0,0.649285 0.532336,1.179687 1.181641,1.179687 h 24.177734 c 0.625693,0 1.15625,-0.530402 1.15625,-1.179687 v -22.3125 c 0,-6.540246 -2.196747,-8.772146 -6.517578,-10.802735 -3.565276,-1.676371 -5.724436,-5.005675 -5.748047,-5.029297 -0.2125,-0.342425 -0.590799,-0.542968 -0.992187,-0.542968 z m -0.01172,3.128906 c 1.097916,1.3104 3.058421,3.305166 5.738281,4.568359 3.518055,1.652788 5.169922,3.046503 5.169922,8.677735 V 49.578125 H 21.074219 V 28.447266 c 0,-5.61944 1.651868,-7.013155 5.169922,-8.677735 2.691665,-1.263193 4.652171,-3.257959 5.738281,-4.568359 z" transform="scale(.26458)"></path></svg>