<svg xmlns="http://www.w3.org/2000/svg" viewBox="0 0 64 64"><g data-name="Layer 2"><path d="M44,48V21a1,1,0,0,0-1-1H38.55A4.08,4.08,0,0,0,37,16.74l-.11-.08a4.47,4.47,0,0,0-3.28-.94h-.08l-.67-1.21a1,1,0,0,0-1.75,0l-.67,1.21h-.08a4.46,4.46,0,0,0-3.28.94l-.1.08A4.08,4.08,0,0,0,25.45,20H21a1,1,0,0,0-1,1V48a1,1,0,0,0,1,1H43A1,1,0,0,0,44,48Zm-2-1H22V22h4.64a1,1,0,0,0,.94-1.34,2.09,2.09,0,0,1,.65-2.36l.1-.08a2.46,2.46,0,0,1,1.8-.52l.75.09a1,1,0,0,0,1-.51l.13-.23.13.23a1,1,0,0,0,1,.51l.75-.09a2.46,2.46,0,0,1,1.8.52l.11.08a2.09,2.09,0,0,1,.65,2.36A1,1,0,0,0,37.36,22H42Z"></path><path d="M47,5a1,1,0,0,0-1,1v5H40V6a1,1,0,0,0-2,0v5H33V6a1,1,0,0,0-2,0v5H26V6a1,1,0,0,0-2,0v5H18V6a1,1,0,0,0-2,0V58a1,1,0,0,0,2,0V53h6v5a1,1,0,0,0,2,0V53h5v5a1,1,0,0,0,2,0V53h5v5a1,1,0,0,0,2,0V53h6v5a1,1,0,0,0,2,0V6A1,1,0,0,0,47,5ZM18,13H46V51H18Z"></path></g></svg>