<svg xmlns="http://www.w3.org/2000/svg" viewBox="0 0 32 32"><g data-name="Discount"><path d="M14.15 25.7H26.09a.75.75 0 0 0 .75-.75V4.45a.75.75 0 0 0-.75-.75H14.15a.76.76 0 0 0-.75.75V25A.76.76 0 0 0 14.15 25.7zM14.9 5.2H25.34v19H14.9zM20.77 26.9H19.48a.75.75 0 1 0 0 1.5h1.29a.75.75 0 1 0 0-1.5z"></path><path d="M3.38,30.75H28.49a.75.75,0,0,0,.75-.75V2a.75.75,0,0,0-.75-.75H3.38A.76.76,0,0,0,2.63,2V30A.76.76,0,0,0,3.38,30.75ZM11,9H7.62a1.22,1.22,0,0,1,0-2.44H11ZM27.74,29.25H12.5V2.75H27.74ZM4.13,2.75H11V5.06H7.62a2.72,2.72,0,0,0,0,5.44H11V29.25H4.13Z"></path><path d="M7.15 7.78a.76.76 0 0 0 .75.75h1a.75.75 0 1 0 0-1.5h-1A.75.75 0 0 0 7.15 7.78zM22.8 17H17.45a.75.75 0 0 0-.67.4.74.74 0 0 0 0 .77l2.67 3.9a.75.75 0 0 0 1.24 0l2.68-3.9a.76.76 0 0 0 0-.77A.74.74 0 0 0 22.8 17zM20.12 20.3l-1.25-1.82h2.5zM20.46 12a.6.6 0 0 1 .51.64.59.59 0 0 1-.51.64.47.47 0 0 1-.33-.16.75.75 0 0 0-1.11 1 1.94 1.94 0 0 0 .69.49v.22a.75.75 0 1 0 1.5 0v-.22a2.13 2.13 0 0 0 1.26-2 2.08 2.08 0 0 0-2-2.14.65.65 0 0 1 0-1.27.5.5 0 0 1 .34.16.73.73 0 0 0 1.05.05.76.76 0 0 0 .06-1.06 2 2 0 0 0-.7-.49V7.63a.75.75 0 1 0-1.5 0v.22a2.15 2.15 0 0 0-1.26 2A2.07 2.07 0 0 0 20.46 12z"></path></g></svg>