<svg xmlns="http://www.w3.org/2000/svg" width="655.359" height="655.359" fill-rule="evenodd" clip-rule="evenodd" viewBox="0 0 6.827 6.827"><path fill-rule="nonzero" d="M1.71616 1.17899l3.39434 0 0.08 0 0 0.08 0 4.30868 0 0.08 -0.08 0 -3.39434 0 -0.08 0 0 -0.08 0 -4.30868 0 -0.08 0.08 0zm3.31434 0.16l-3.23434 0 0 4.14868 3.23434 0 0 -4.14868z"></path><path fill-rule="nonzero" d="M2.02205 1.56728l2.78257 0 .08.00000393701 0 .0799961 0 3.53211 0 .0799961-.08.00000393701-2.78257 0-.08-.00000393701 0-.0799961 0-3.53211 0-.0799961.08-.00000393701zm2.70257.16l-2.62257 0 0 3.37211 2.62257 0 0-3.37211zM1.86503.933331c0-.0441811-.0358189-.08-.08-.08-.0441811 0-.08.0358189-.08.08l0 .325661c0 .0441811.0358189.08.08.08.0441811 0 .08-.0358189.08-.08l0-.325661zM2.11554.933331c0-.0441811-.0358189-.08-.08-.08-.0441811 0-.08.0358189-.08.08l0 .325661c0 .0441811.0358189.08.08.08.0441811 0 .08-.0358189.08-.08l0-.325661zM2.36604.933331c0-.0441811-.0358189-.08-.08-.08-.0441811 0-.08.0358189-.08.08l0 .325661c0 .0441811.0358189.08.08.08.0441811 0 .08-.0358189.08-.08l0-.325661zM2.61655.933331c0-.0441811-.0358189-.08-.08-.08-.0441811 0-.08.0358189-.08.08l0 .325661c0 .0441811.0358189.08.08.08.0441811 0 .08-.0358189.08-.08l0-.325661zM2.86706.933331c0-.0441811-.0358189-.08-.08-.08-.0441811 0-.08.0358189-.08.08l0 .325661c0 .0441811.0358189.08.08.08.0441811 0 .08-.0358189.08-.08l0-.325661zM3.11757.933331c0-.0441811-.0358189-.08-.08-.08-.0441811 0-.08.0358189-.08.08l0 .325661c0 .0441811.0358189.08.08.08.0441811 0 .08-.0358189.08-.08l0-.325661zM3.36807.933331c0-.0441811-.0358189-.08-.08-.08-.0441811 0-.08.0358189-.08.08l0 .325661c0 .0441811.0358189.08.08.08.0441811 0 .08-.0358189.08-.08l0-.325661zM3.61859.933331c0-.0441811-.0358189-.08-.08-.08-.0441811 0-.08.0358189-.08.08l0 .325661c0 .0441811.0358189.08.08.08.0441811 0 .08-.0358189.08-.08l0-.325661zM3.86909.933331c0-.0441811-.0358189-.08-.08-.08-.0441811 0-.08.0358189-.08.08l0 .325661c0 .0441811.0358189.08.08.08.0441811 0 .08-.0358189.08-.08l0-.325661zM4.1196.933331c0-.0441811-.0358189-.08-.08-.08-.0441811 0-.08.0358189-.08.08l0 .325661c0 .0441811.0358189.08.08.08.0441811 0 .08-.0358189.08-.08l0-.325661zM4.37011.933331c0-.0441811-.0358189-.08-.08-.08-.0441811 0-.08.0358189-.08.08l0 .325661c0 .0441811.0358189.08.08.08.0441811 0 .08-.0358189.08-.08l0-.325661zM4.62062.933331c0-.0441811-.0358189-.08-.08-.08-.0441811 0-.08.0358189-.08.08l0 .325661c0 .0441811.0358189.08.08.08.0441811 0 .08-.0358189.08-.08l0-.325661zM4.87113.933331c0-.0441811-.0358189-.08-.08-.08-.0441811 0-.08.0358189-.08.08l0 .325661c0 .0441811.0358189.08.08.08.0441811 0 .08-.0358189.08-.08l0-.325661zM5.12163.933331c0-.0441811-.0358189-.08-.08-.08-.0441811 0-.08.0358189-.08.08l0 .325661c0 .0441811.0358189.08.08.08.0441811 0 .08-.0358189.08-.08l0-.325661zM1.86503 5.56767c0-.0441811-.0358189-.08-.08-.08-.0441811 0-.08.0358189-.08.08l0 .325661c0 .0441811.0358189.08.08.08.0441811 0 .08-.0358189.08-.08l0-.325661zM2.11554 5.56767c0-.0441811-.0358189-.08-.08-.08-.0441811 0-.08.0358189-.08.08l0 .325661c0 .0441811.0358189.08.08.08.0441811 0 .08-.0358189.08-.08l0-.325661zM2.36604 5.56767c0-.0441811-.0358189-.08-.08-.08-.0441811 0-.08.0358189-.08.08l0 .325661c0 .0441811.0358189.08.08.08.0441811 0 .08-.0358189.08-.08l0-.325661zM2.61655 5.56767c0-.0441811-.0358189-.08-.08-.08-.0441811 0-.08.0358189-.08.08l0 .325661c0 .0441811.0358189.08.08.08.0441811 0 .08-.0358189.08-.08l0-.325661zM2.86706 5.56767c0-.0441811-.0358189-.08-.08-.08-.0441811 0-.08.0358189-.08.08l0 .325661c0 .0441811.0358189.08.08.08.0441811 0 .08-.0358189.08-.08l0-.325661zM3.11757 5.56767c0-.0441811-.0358189-.08-.08-.08-.0441811 0-.08.0358189-.08.08l0 .325661c0 .0441811.0358189.08.08.08.0441811 0 .08-.0358189.08-.08l0-.325661zM3.36807 5.56767c0-.0441811-.0358189-.08-.08-.08-.0441811 0-.08.0358189-.08.08l0 .325661c0 .0441811.0358189.08.08.08.0441811 0 .08-.0358189.08-.08l0-.325661zM3.61859 5.56767c0-.0441811-.0358189-.08-.08-.08-.0441811 0-.08.0358189-.08.08l0 .325661c0 .0441811.0358189.08.08.08.0441811 0 .08-.0358189.08-.08l0-.325661zM3.86909 5.56767c0-.0441811-.0358189-.08-.08-.08-.0441811 0-.08.0358189-.08.08l0 .325661c0 .0441811.0358189.08.08.08.0441811 0 .08-.0358189.08-.08l0-.325661zM4.1196 5.56767c0-.0441811-.0358189-.08-.08-.08-.0441811 0-.08.0358189-.08.08l0 .325661c0 .0441811.0358189.08.08.08.0441811 0 .08-.0358189.08-.08l0-.325661zM4.37011 5.56767c0-.0441811-.0358189-.08-.08-.08-.0441811 0-.08.0358189-.08.08l0 .325661c0 .0441811.0358189.08.08.08.0441811 0 .08-.0358189.08-.08l0-.325661zM4.62062 5.56767c0-.0441811-.0358189-.08-.08-.08-.0441811 0-.08.0358189-.08.08l0 .325661c0 .0441811.0358189.08.08.08.0441811 0 .08-.0358189.08-.08l0-.325661zM4.87113 5.56767c0-.0441811-.0358189-.08-.08-.08-.0441811 0-.08.0358189-.08.08l0 .325661c0 .0441811.0358189.08.08.08.0441811 0 .08-.0358189.08-.08l0-.325661zM5.12163 5.56767c0-.0441811-.0358189-.08-.08-.08-.0441811 0-.08.0358189-.08.08l0 .325661c0 .0441811.0358189.08.08.08.0441811 0 .08-.0358189.08-.08l0-.325661z"></path><path fill-rule="nonzero" d="M3.61341 2.40143l0.811815 0.811811c0.0550866,0.0550945 0.0826417,0.127626 0.0826417,0.200091l-0.000311024 0c3.93701e-006,0.0726535 -0.0274449,0.145197 -0.0823268,0.200087l-0.811815 0.811811 -7.87402e-006 7.87402e-006c-0.0550906,0.0550906 -0.127618,0.0826378 -0.200083,0.0826378 -0.0724606,0 -0.144988,-0.0275472 -0.200079,-0.0826378l-7.87402e-006 -7.87402e-006 -0.811811 -0.811811c-0.0550945,-0.0550866 -0.0826417,-0.127618 -0.0826417,-0.200087 0,-0.0724646 0.0275472,-0.144996 0.0826417,-0.200091l0.811815 -0.811811 7.87402e-006 -7.87402e-006c0.0550906,-0.0550866 0.127618,-0.0826339 0.200079,-0.0826339 0.0724567,0 0.144984,0.0275472 0.200075,0.0826339l7.87402e-006 7.87402e-006zm0.698689 0.924937l-0.811815 -0.811811 -7.87402e-006 -7.87402e-006c-0.0238386,-0.0238346 -0.0553701,-0.0357598 -0.0869488,-0.0357598 -0.0315827,0 -0.0631142,0.0119252 -0.0869528,0.0357598l-7.87402e-006 7.87402e-006 -0.811815 0.811811c-0.0238425,0.0238425 -0.0357677,0.055378 -0.0357677,0.0869646 0,0.0315827 0.0119252,0.0631181 0.0357677,0.0869606l0.811811 0.811811 7.87402e-006 7.87402e-006c0.0238386,0.0238386 0.0553701,0.0357638 0.0869528,0.0357638 0.0315866,0 0.0631181,-0.0119252 0.0869567,-0.0357638l7.87402e-006 -7.87402e-006 0.811815 -0.811811c0.0240472,-0.0240512 0.0360748,-0.0555669 0.0360748,-0.0869606l-0.000311024 0c0,-0.0315866 -0.0119252,-0.063122 -0.0357677,-0.0869646z"></path><path fill-rule="nonzero" d="M3.54697 2.84371l0.43598 0.43598c0.0368189,0.0368189 0.0552323,0.0852638 0.0552323,0.133642 0,0.048374 -0.0184134,0.0968189 -0.0552323,0.133638l-0.43598 0.43598c-0.0368189,0.0368189 -0.0852638,0.0552283 -0.133642,0.0552283 -0.048378,0 -0.0968228,-0.0184055 -0.133638,-0.0552283l-0.43598 -0.43598 -3.93701e-006 -3.93701e-006c-0.036811,-0.0368189 -0.0552283,-0.0852598 -0.0552283,-0.133638 0,-0.0483819 0.0184173,-0.096815 0.0552283,-0.133634l3.93701e-006 -3.93701e-006 0.43598 -0.43598c0.0368189,-0.0368189 0.0852638,-0.0552323 0.133638,-0.0552323 0.048378,0 0.0968228,0.0184134 0.133642,0.0552323zm0.322854 0.549106l-0.43598 -0.43598c-0.00556693,-0.00556693 -0.0130157,-0.00835827 -0.0205157,-0.00835827 -0.00749606,0 -0.0149449,0.00279134 -0.0205118,0.00835827l-0.43598 0.43598 -3.93701e-006 3.93701e-006c-0.00556693,0.00556693 -0.00835433,0.0130157 -0.00835433,0.0205079 0,0.0075 0.0027874,0.0149449 0.00835433,0.0205118l3.93701e-006 3.93701e-006 0.43598 0.43598c0.00556693,0.00556693 0.0130118,0.00835433 0.0205118,0.00835433 0.0075,0 0.0149488,-0.0027874 0.0205157,-0.00835433l0.43598 -0.43598c0.00556693,-0.00556693 0.00835827,-0.0130157 0.00835827,-0.0205118 0,-0.0075 -0.00279134,-0.0149488 -0.00835827,-0.0205157z"></path><rect width="6.827" height="6.827" fill="none"></rect></svg>